<svg width="128" height="128" viewBox="0 0 128 128" fill="none" xmlns="http://www.w3.org/2000/svg">
<g id="Iconweb/Bold/Info Circle">
<g id="Vector">
<path id="Vector_2" fill-rule="evenodd" clip-rule="evenodd" d="M10.667 63.9963C10.667 34.5616 34.5603 10.663 64.0003 10.663C93.4937 10.663 117.334 34.5616 117.334 63.9963C117.334 93.4416 93.4937 117.33 64.0003 117.33C34.5603 117.33 10.667 93.4416 10.667 63.9963ZM59.307 43.783C59.307 41.2283 61.4403 39.0896 64.0003 39.0896C66.5603 39.0896 68.6403 41.2283 68.6403 43.783V67.3563C68.6403 69.9216 66.5603 71.9963 64.0003 71.9963C61.4403 71.9963 59.307 69.9216 59.307 67.3563V43.783ZM64.0537 88.9616C61.4403 88.9616 59.3603 86.8283 59.3603 84.2683C59.3603 81.7083 61.4403 79.6283 64.0003 79.6283C66.6137 79.6283 68.6937 81.7083 68.6937 84.2683C68.6937 86.8283 66.6137 88.9616 64.0537 88.9616Z" fill="#FFD643"/>
</g>
</g>
</svg>
