<svg width="38" height="38" viewBox="0 0 38 38" fill="none" xmlns="http://www.w3.org/2000/svg">
<g id="location_on_black_24dp 1" clip-path="url(#clip0_515_13461)">
<g id="Group 48095631">
<path id="Vector" d="M19 14C14.5771 14 11 17.756 11 22.4C11 28.7 19 38 19 38C19 38 27 28.7 27 22.4C27 17.756 23.4229 14 19 14ZM19 25.4C17.4229 25.4 16.1429 24.056 16.1429 22.4C15.0301 24.7087 17.4229 26.379 19 26.379C20.5772 26.379 23.3309 24.4842 21.8571 22.4C21.8571 24.056 20.5771 25.4 19 25.4Z" fill="#C7262E"/>
<g id="Group 48095621">
<path id="Vector_2" d="M23.191 22.372C20.7758 23.296 18.2267 23.8323 15.6401 23.9607C15.769 25.8892 17.0477 28.0001 18.0939 28.0001C20.7448 28.0001 22.8752 23.631 23.325 22.6967C23.4968 22.3495 23.3654 22.297 23.191 22.372Z" fill="url(#paint0_linear_515_13461)"/>
<path id="Vector_3" d="M17.0856 23.1465C15.8221 22.6968 16.0748 20.5435 16.047 20.3986C15.9207 19.9265 14.0051 21.5927 14.0051 22.7243C14.0051 23.1964 14.316 23.3463 14.8264 23.3613C15.5822 23.3564 16.3363 23.2887 17.0806 23.159C17.0983 23.1615 17.0957 23.149 17.0856 23.1465Z" fill="url(#paint1_linear_515_13461)"/>
</g>
</g>
</g>
<defs>
<linearGradient id="paint0_linear_515_13461" x1="14.7315" y1="24.547" x2="23.8693" y2="26.1766" gradientUnits="userSpaceOnUse">
<stop stop-color="#F9A51A"/>
<stop offset="0.5" stop-color="#FFDC00"/>
<stop offset="1" stop-color="#FFDC00"/>
</linearGradient>
<linearGradient id="paint1_linear_515_13461" x1="16.6584" y1="23.8584" x2="14.8315" y2="19.8953" gradientUnits="userSpaceOnUse">
<stop stop-color="#F9A51A"/>
<stop offset="0.2" stop-color="#FFC10E"/>
<stop offset="0.45" stop-color="#FFDC00"/>
<stop offset="1" stop-color="#FFDC00"/>
</linearGradient>
<clipPath id="clip0_515_13461">
<rect width="38" height="38" fill="white"/>
</clipPath>
</defs>
</svg>
