<svg width="17" height="16" viewBox="0 0 17 16" fill="none" xmlns="http://www.w3.org/2000/svg">
<path fill-rule="evenodd" clip-rule="evenodd" d="M16.8529 1.19621C17.0708 0.9026 17.0466 0.485936 16.7803 0.21967C16.4874 -0.0732234 16.0126 -0.0732234 15.7197 0.21967L8.71967 7.21967L8.64705 7.30379C8.4292 7.5974 8.4534 8.01406 8.71967 8.28033L15.7197 15.2803L15.8038 15.3529C16.0974 15.5708 16.5141 15.5466 16.7803 15.2803L16.8529 15.1962C17.0708 14.9026 17.0466 14.4859 16.7803 14.2197L10.311 7.75L16.7803 1.28033L16.8529 1.19621ZM8.85295 1.19621C9.0708 0.902599 9.0466 0.485936 8.78033 0.219669C8.48744 -0.0732241 8.01256 -0.0732241 7.71967 0.219669L0.719669 7.21967L0.647052 7.30379C0.429197 7.5974 0.453403 8.01406 0.719669 8.28033L7.71967 15.2803L7.80379 15.3529C8.0974 15.5708 8.51406 15.5466 8.78033 15.2803L8.85295 15.1962C9.0708 14.9026 9.0466 14.4859 8.78033 14.2197L2.311 7.75L8.78033 1.28033L8.85295 1.19621Z" fill="black"/>
</svg>
