<svg width="156" height="47" viewBox="0 0 156 47" fill="none" xmlns="http://www.w3.org/2000/svg">
<path d="M150.182 0H5.8183C2.62787 0 0.0437622 2.5841 0.0437622 5.77454V40.4217C0.0437622 43.6122 2.62787 46.1963 5.8183 46.1963H150.182C153.372 46.1963 155.956 43.6122 155.956 40.4217V5.77454C155.956 2.5841 153.372 0 150.182 0Z" fill="#333333"/>
<path fill-rule="evenodd" clip-rule="evenodd" d="M5.8183 0H150.182C151.712 0 153.184 0.606326 154.267 1.68905C155.35 2.77178 155.956 4.24428 155.956 5.77454V40.4217C155.956 41.952 155.35 43.4245 154.267 44.5072C153.184 45.59 151.712 46.1963 150.182 46.1963H5.8183C4.28805 46.1963 2.81554 45.59 1.73281 44.5072C0.650088 43.4245 0.0437622 41.952 0.0437622 40.4217V5.77454C0.0437622 4.24428 0.650088 2.77178 1.73281 1.68905C2.81554 0.606326 4.28805 0 5.8183 0ZM153.61 2.34596C152.701 1.43647 151.467 0.923982 150.182 0.923982H5.81835C4.53352 0.923982 3.29921 1.43647 2.38972 2.34596C1.48023 3.25545 0.967744 4.48976 0.967744 5.77459V40.4218C0.967744 41.7066 1.48023 42.9409 2.38972 43.8504C3.29921 44.7599 4.53352 45.2724 5.81835 45.2724H150.182C151.467 45.2724 152.701 44.7599 153.61 43.8504C154.52 42.9409 155.032 41.7066 155.032 40.4218V5.77459C155.032 4.48976 154.52 3.25545 153.61 2.34596Z" fill="#A6A6A6"/>
<path d="M37.1308 22.3038C37.102 18.7597 40.0325 17.0345 40.1697 16.9551C38.5095 14.5298 35.9326 14.1978 35.0231 14.1689C32.8577 13.9452 30.7572 15.4682 29.66 15.4682C28.534 15.4682 26.8377 14.1906 25.0043 14.2267C22.6512 14.2628 20.4497 15.627 19.237 17.7491C16.7467 22.0656 18.6018 28.4104 20.991 31.8968C22.1892 33.6075 23.5823 35.5131 25.4158 35.4481C27.1986 35.3759 27.8699 34.3076 30.0282 34.3076C32.1647 34.3076 32.7927 35.4481 34.655 35.4048C36.575 35.3759 37.7805 33.6869 38.9354 31.9617C40.3213 30.0056 40.8699 28.0783 40.8915 27.9773C40.8482 27.9628 37.1669 26.5553 37.1308 22.3038Z" fill="white"/>
<path d="M33.6081 11.8739C34.5681 10.6757 35.2322 9.03713 35.0445 7.37695C33.6514 7.4347 31.9118 8.33697 30.9085 9.51353C30.0279 10.5529 29.2339 12.2492 29.436 13.8517C31.0024 13.9671 32.6048 13.0577 33.6081 11.8739Z" fill="white"/>
<path fill-rule="evenodd" clip-rule="evenodd" d="M60.5104 35.2033H63.0078L58.2727 20.5576H55.3566L50.6431 35.2033H53.0756L54.3821 30.9013H59.1389L60.5104 35.2033ZM57.4932 25.2712L58.7275 29.0969H54.7936L56.0134 25.2712C56.331 24.0586 56.562 23.1346 56.7064 22.5139H56.7497C57.1106 23.9575 57.356 24.8814 57.4932 25.2712Z" fill="white"/>
<path fill-rule="evenodd" clip-rule="evenodd" d="M73.6762 34.0486C74.6434 33.0092 75.1343 31.5872 75.1343 29.7899C75.1343 28.1874 74.7156 26.8882 73.8783 25.8993C73.0482 24.9176 72.0088 24.4268 70.7673 24.4268C69.1721 24.4268 67.9811 25.0547 67.2015 26.3179H67.1582L67.0283 24.6433H64.9639C65.0216 25.8343 65.0505 26.9892 65.0505 28.1152V39.5055H67.3964V33.9403H67.4397C68.046 34.9436 69.0493 35.4417 70.4352 35.4417C71.7273 35.4417 72.81 34.9797 73.6762 34.0486ZM72.0448 27.3358C72.514 27.9999 72.7449 28.8516 72.7449 29.8766C72.7449 30.9954 72.4923 31.8905 72.0015 32.5762C71.5106 33.2547 70.8249 33.5939 69.9371 33.5939C69.1864 33.5939 68.5728 33.3269 68.1037 32.7999C67.6345 32.273 67.3963 31.6234 67.3963 30.8583V29.097C67.3963 28.9094 67.4324 28.6712 67.5045 28.3824C67.6489 27.7544 67.9593 27.2564 68.4285 26.8666C68.8976 26.484 69.4246 26.2964 70.002 26.2964C70.861 26.2964 71.5395 26.6428 72.0448 27.3358Z" fill="white"/>
<path fill-rule="evenodd" clip-rule="evenodd" d="M85.8172 34.0486C86.7917 33.0092 87.2753 31.5872 87.2753 29.7899C87.2753 28.1874 86.8567 26.8882 86.0266 25.8993C85.1965 24.9176 84.1571 24.4268 82.9083 24.4268C81.3131 24.4268 80.1293 25.0547 79.3498 26.3179H79.3064L79.1693 24.6433H77.1121C77.1699 25.8343 77.1987 26.9892 77.1987 28.1152V39.5055H79.5446V33.9403H79.588C80.1943 34.9436 81.1904 35.4417 82.5835 35.4417C83.8755 35.4417 84.9511 34.9797 85.8172 34.0486ZM84.1931 27.3358C84.655 27.9999 84.886 28.8516 84.886 29.8766C84.886 30.9954 84.6406 31.8905 84.1498 32.5762C83.6589 33.2547 82.966 33.5939 82.0854 33.5939C81.3275 33.5939 80.7211 33.3269 80.2447 32.7999C79.7755 32.273 79.5446 31.6234 79.5446 30.8583V29.097C79.5446 28.9094 79.5807 28.6712 79.6528 28.3824C79.7972 27.7544 80.1004 27.2564 80.5768 26.8666C81.0459 26.484 81.5729 26.2964 82.1503 26.2964C83.0021 26.2964 83.6806 26.6428 84.1931 27.3358Z" fill="white"/>
<path d="M100.86 31.0959C100.86 32.3374 100.427 33.3552 99.5535 34.1347C98.6007 34.9937 97.2726 35.4196 95.5691 35.4196C93.9883 35.4196 92.7251 35.1164 91.7723 34.5029L92.3137 32.554C93.3459 33.1747 94.4719 33.4851 95.7062 33.4851C96.5869 33.4851 97.2798 33.283 97.7706 32.886C98.2615 32.489 98.5069 31.9549 98.5069 31.2908C98.5069 30.6917 98.3048 30.1936 97.9006 29.7894C97.4964 29.378 96.8251 29.0026 95.8795 28.6562C93.317 27.6961 92.0322 26.2958 92.0322 24.4552C92.0322 23.2497 92.4869 22.2609 93.382 21.4957C94.277 20.7234 95.4753 20.3408 96.9694 20.3408C98.3048 20.3408 99.4092 20.5718 100.29 21.041L99.7051 22.9538C98.8822 22.4991 97.9439 22.2753 96.9045 22.2753C96.0744 22.2753 95.432 22.4774 94.97 22.8888C94.5802 23.2497 94.3853 23.6901 94.3853 24.2098C94.3853 24.7872 94.6091 25.2708 95.0566 25.6462C95.4464 25.9926 96.1538 26.368 97.186 26.7722C98.4492 27.2847 99.3731 27.8766 99.965 28.5551C100.557 29.2336 100.86 30.0853 100.86 31.0959Z" fill="white"/>
<path d="M108.612 26.4037H106.028V31.5286C106.028 32.8351 106.483 33.4847 107.392 33.4847C107.818 33.4847 108.165 33.4486 108.439 33.3764L108.504 35.1593C108.042 35.3326 107.436 35.4192 106.678 35.4192C105.754 35.4192 105.025 35.1304 104.505 34.5674C103.985 34.0044 103.726 33.0516 103.726 31.7235V26.3965H102.181V24.6424H103.726V22.708L106.028 22.0078V24.6424H108.612V26.4037Z" fill="white"/>
<path fill-rule="evenodd" clip-rule="evenodd" d="M118.891 33.832C119.815 32.7926 120.284 31.4573 120.284 29.8332C120.284 28.2596 119.829 26.9676 118.934 25.9714C117.989 24.9392 116.747 24.4268 115.195 24.4268C113.586 24.4268 112.308 24.9465 111.362 25.9931C110.41 27.0325 109.94 28.3751 109.94 30.0136C109.94 31.5727 110.395 32.872 111.319 33.897C112.236 34.9292 113.47 35.4417 115.022 35.4417C116.632 35.4417 117.916 34.9075 118.891 33.832ZM117.216 27.4079C117.635 28.1008 117.844 28.9381 117.844 29.9126C117.844 30.887 117.628 31.7243 117.195 32.4389C116.689 33.2907 115.989 33.7238 115.087 33.7238C114.177 33.7238 113.47 33.3051 112.958 32.4606C112.539 31.7676 112.33 30.9303 112.33 29.9559C112.33 28.9525 112.539 28.1008 112.958 27.4079C113.448 26.5633 114.17 26.1447 115.109 26.1447C116.025 26.1447 116.725 26.5633 117.216 27.4079Z" fill="white"/>
<path d="M127.907 26.7077C127.676 26.6644 127.43 26.6427 127.17 26.6427C126.34 26.6427 125.705 26.9531 125.257 27.5739C124.86 28.1297 124.666 28.8226 124.666 29.6599V35.2035H122.32L122.341 27.9709C122.341 26.751 122.312 25.6394 122.255 24.6433H124.297L124.384 26.6644H124.449C124.702 25.9714 125.091 25.4084 125.626 24.9898C126.145 24.6144 126.708 24.4268 127.322 24.4268C127.538 24.4268 127.733 24.4412 127.907 24.4701V26.7077Z" fill="white"/>
<path fill-rule="evenodd" clip-rule="evenodd" d="M138.315 30.4892C138.373 30.1933 138.402 29.8396 138.402 29.4209C138.402 28.1072 138.084 26.9956 137.47 26.1006C136.684 24.9673 135.536 24.4043 134.013 24.4043C132.461 24.4043 131.234 24.9673 130.317 26.1006C129.451 27.1544 129.011 28.4826 129.011 30.0778C129.011 31.6946 129.48 32.9867 130.418 33.9539C131.349 34.914 132.634 35.3976 134.273 35.3976C135.637 35.3976 136.814 35.181 137.81 34.7479L137.449 33.1166C136.59 33.4487 135.637 33.6147 134.598 33.6147C133.659 33.6147 132.887 33.3693 132.295 32.8784C131.645 32.3298 131.299 31.5286 131.277 30.4892H138.315ZM135.709 27.01C136.027 27.5153 136.178 28.1144 136.164 28.8146H131.277C131.349 28.1 131.58 27.4936 131.97 26.9884C132.446 26.3459 133.067 26.0283 133.84 26.0283C134.677 26.0283 135.298 26.3604 135.709 27.01Z" fill="white"/>
<path fill-rule="evenodd" clip-rule="evenodd" d="M56.7859 14.4728C57.5654 13.816 57.9552 12.8415 57.9552 11.5495C57.9552 10.3946 57.5943 9.50673 56.8725 8.89318C56.2373 8.3446 55.2845 8.07031 54.0285 8.07031C53.3139 8.07031 52.6499 8.12084 52.0363 8.21468V15.2957C52.5127 15.3534 53.0685 15.3823 53.7254 15.3823C55.0463 15.3823 56.0713 15.0792 56.7859 14.4728ZM56.0714 9.65099C56.5117 10.0985 56.7354 10.7409 56.7354 11.5782C56.7354 12.5238 56.4972 13.2384 56.0136 13.7293C55.5372 14.2201 54.8515 14.4655 53.9709 14.4655C53.5955 14.4655 53.3357 14.4511 53.1913 14.4294V9.05189C53.4512 9.00136 53.7616 8.97249 54.1225 8.97249C54.9742 8.97249 55.6238 9.20347 56.0714 9.65099Z" fill="white"/>
<path fill-rule="evenodd" clip-rule="evenodd" d="M63.7152 14.646C64.1699 14.1335 64.4009 13.4767 64.4009 12.6827C64.4009 11.9031 64.1772 11.2679 63.7369 10.7771C63.2749 10.279 62.6613 10.0264 61.9034 10.0264C61.1094 10.0264 60.4887 10.279 60.0195 10.7915C59.5503 11.304 59.3193 11.9608 59.3193 12.7621C59.3193 13.5344 59.5431 14.1696 59.9978 14.6749C60.4454 15.1801 61.0517 15.4328 61.8168 15.4328C62.6036 15.4328 63.2388 15.1729 63.7152 14.646ZM62.8923 11.4843C63.1016 11.8308 63.2027 12.235 63.2027 12.7186C63.2027 13.195 63.0944 13.6065 62.8851 13.9601C62.6324 14.3788 62.2932 14.5881 61.8529 14.5881C61.3981 14.5881 61.0517 14.386 60.8063 13.9674C60.5969 13.6281 60.4959 13.2167 60.4959 12.7403C60.4959 12.2422 60.5969 11.8308 60.8063 11.4843C61.0445 11.0729 61.3981 10.8636 61.8601 10.8636C62.3076 10.8636 62.6541 11.0729 62.8923 11.4843Z" fill="white"/>
<path d="M73.0482 10.127L71.4242 15.3168H70.3631L69.6918 13.0647C69.5258 12.5017 69.3814 11.9387 69.2731 11.3901H69.2587C69.1576 11.9604 69.0133 12.5162 68.8401 13.0647L68.1255 15.3168H67.0572L65.5269 10.127H66.7179L67.3026 12.5956C67.4397 13.1802 67.5624 13.736 67.6563 14.263H67.6707C67.7573 13.8227 67.9017 13.2741 68.1038 12.6028L68.8401 10.127H69.7784L70.4858 12.5523C70.6518 13.1441 70.7962 13.7144 70.8972 14.263H70.9333C71.0127 13.7288 71.1282 13.1586 71.2798 12.5523L71.915 10.127H73.0482Z" fill="white"/>
<path d="M79.0249 15.3167H77.87V12.3428C77.87 11.4261 77.5235 10.9714 76.8234 10.9714C76.4841 10.9714 76.2098 11.0941 75.9933 11.3467C75.7767 11.5993 75.6685 11.8953 75.6685 12.2345V15.3167H74.5208V11.6138C74.5208 11.1518 74.5064 10.661 74.4775 10.1268H75.488L75.5458 10.9353H75.5746C75.7118 10.6826 75.9139 10.4805 76.1737 10.3145C76.4841 10.1196 76.8378 10.0186 77.2204 10.0186C77.704 10.0186 78.1082 10.1774 78.4258 10.4877C78.8228 10.8703 79.0249 11.4478 79.0249 12.2057V15.3167Z" fill="white"/>
<path d="M82.201 15.317H81.0533V7.74512H82.201V15.317Z" fill="white"/>
<path fill-rule="evenodd" clip-rule="evenodd" d="M88.3074 14.646C88.7622 14.1335 88.9932 13.4767 88.9932 12.6827C88.9932 11.9031 88.7694 11.2679 88.3291 10.7771C87.8671 10.279 87.2536 10.0264 86.4957 10.0264C85.7017 10.0264 85.0809 10.279 84.6117 10.7915C84.1425 11.304 83.9116 11.9608 83.9116 12.7621C83.9116 13.5344 84.1353 14.1696 84.5901 14.6749C85.0376 15.1801 85.6439 15.4328 86.409 15.4328C87.1958 15.4328 87.831 15.1729 88.3074 14.646ZM87.4847 11.4843C87.6941 11.8308 87.7951 12.235 87.7951 12.7186C87.7951 13.195 87.6868 13.6065 87.4775 13.9601C87.2249 14.3788 86.8856 14.5881 86.4453 14.5881C85.9906 14.5881 85.6441 14.386 85.3987 13.9674C85.1894 13.6281 85.0883 13.2167 85.0883 12.7403C85.0883 12.2422 85.1894 11.8308 85.3987 11.4843C85.6369 11.0729 85.9906 10.8636 86.4525 10.8636C86.9001 10.8636 87.2465 11.0729 87.4847 11.4843Z" fill="white"/>
<path fill-rule="evenodd" clip-rule="evenodd" d="M93.5409 15.3173H94.5731C94.5225 15.0069 94.5009 14.5955 94.5009 14.083V12.1702C94.5009 10.741 93.8224 10.0264 92.4653 10.0264C91.7652 10.0264 91.1661 10.1707 90.6825 10.4739L90.9207 11.2318C91.3104 10.9719 91.758 10.842 92.2705 10.842C92.9923 10.842 93.346 11.1885 93.346 11.867V11.9681C92.3859 11.9608 91.6425 12.1196 91.1083 12.4589C90.5814 12.7909 90.3143 13.2745 90.3143 13.9097C90.3143 14.3284 90.4515 14.6821 90.7185 14.9636C91.0217 15.274 91.4187 15.4328 91.9095 15.4328C92.5592 15.4328 93.0645 15.1946 93.4181 14.7182H93.4542L93.5409 15.3173ZM93.3749 12.7333V13.5346C93.3749 13.614 93.3677 13.6789 93.3604 13.7367C93.3099 13.9893 93.1728 14.1914 92.9562 14.3502C92.7469 14.509 92.5087 14.5884 92.2561 14.5884C92.0251 14.5884 91.8374 14.5234 91.693 14.3863C91.5415 14.2491 91.4693 14.047 91.4693 13.78C91.4693 13.0582 92.1045 12.7117 93.3749 12.7333Z" fill="white"/>
<path fill-rule="evenodd" clip-rule="evenodd" d="M100.102 15.317H101.127C101.098 14.8911 101.084 14.4219 101.084 13.9167V7.74512H99.9289V10.7262H99.9072C99.6329 10.257 99.1421 10.0188 98.4491 10.0188C97.8139 10.0188 97.2798 10.2643 96.8467 10.7479C96.3992 11.2676 96.1754 11.9461 96.1754 12.7906C96.1754 13.5702 96.3847 14.2054 96.7962 14.6962C97.2076 15.187 97.7273 15.4325 98.3553 15.4325C99.1349 15.4325 99.6907 15.1149 100.015 14.4797H100.052L100.102 15.317ZM99.9289 12.2637V13.1299C99.9289 13.498 99.8206 13.8156 99.6041 14.0755C99.3731 14.3642 99.07 14.5086 98.6874 14.5086C98.2687 14.5086 97.9295 14.3353 97.6841 13.9961C97.4459 13.6713 97.3304 13.2598 97.3304 12.7473C97.3304 12.2132 97.4531 11.7729 97.6985 11.4336C97.9439 11.0872 98.2832 10.9211 98.709 10.9211C99.0122 10.9211 99.2721 11.015 99.4814 11.2027C99.6979 11.3903 99.8351 11.6213 99.9 11.9028C99.9217 11.9894 99.9289 12.1121 99.9289 12.2637Z" fill="white"/>
<path fill-rule="evenodd" clip-rule="evenodd" d="M110.308 14.646C110.763 14.1335 110.987 13.4767 110.987 12.6827C110.987 11.9031 110.77 11.2679 110.33 10.7771C109.868 10.279 109.255 10.0264 108.497 10.0264C107.703 10.0264 107.075 10.279 106.606 10.7915C106.144 11.304 105.913 11.9608 105.913 12.7621C105.913 13.5344 106.136 14.1696 106.584 14.6749C107.039 15.1801 107.645 15.4328 108.41 15.4328C109.197 15.4328 109.832 15.1729 110.308 14.646ZM109.485 11.4843C109.695 11.8308 109.796 12.235 109.796 12.7186C109.796 13.195 109.688 13.6065 109.478 13.9601C109.226 14.3788 108.879 14.5881 108.439 14.5881C107.991 14.5881 107.645 14.386 107.392 13.9674C107.19 13.6281 107.082 13.2167 107.082 12.7403C107.082 12.2422 107.183 11.8308 107.392 11.4843C107.638 11.0729 107.991 10.8636 108.453 10.8636C108.901 10.8636 109.24 11.0729 109.485 11.4843Z" fill="white"/>
<path d="M117.187 15.3167H116.04V12.3428C116.04 11.4261 115.693 10.9714 114.993 10.9714C114.647 10.9714 114.372 11.0941 114.163 11.3467C113.946 11.5993 113.838 11.8953 113.838 12.2345V15.3167H112.683V11.6138C112.683 11.1518 112.676 10.661 112.647 10.1268H113.658L113.708 10.9353H113.744C113.882 10.6826 114.076 10.4805 114.343 10.3145C114.654 10.1196 115 10.0186 115.39 10.0186C115.874 10.0186 116.271 10.1774 116.596 10.4877C116.993 10.8703 117.187 11.4478 117.187 12.2057V15.3167Z" fill="white"/>
<path d="M124.954 10.9932H123.684V13.5123C123.684 14.1548 123.908 14.4724 124.355 14.4724C124.564 14.4724 124.73 14.4579 124.868 14.4218L124.896 15.2952C124.673 15.3818 124.369 15.4251 124.001 15.4251C123.547 15.4251 123.193 15.2808 122.933 15.0065C122.68 14.7322 122.551 14.263 122.551 13.6062V10.9932H121.793V10.127H122.551V9.18143L123.684 8.83496V10.127H124.954V10.9932Z" fill="white"/>
<path d="M131.061 15.317H129.906V12.3647C129.906 11.4336 129.552 10.9716 128.859 10.9716C128.325 10.9716 127.957 11.2387 127.755 11.7801C127.726 11.8956 127.704 12.0327 127.704 12.1987V15.317H126.549V7.74512H127.704V10.8778H127.726C128.087 10.3076 128.607 10.0188 129.285 10.0188C129.762 10.0188 130.159 10.1776 130.469 10.4952C130.859 10.885 131.061 11.4625 131.061 12.2348V15.317Z" fill="white"/>
<path fill-rule="evenodd" clip-rule="evenodd" d="M137.312 13C137.34 12.8557 137.355 12.6824 137.355 12.4803C137.355 11.8307 137.203 11.2821 136.893 10.8418C136.51 10.2932 135.94 10.0117 135.197 10.0117C134.432 10.0117 133.832 10.2932 133.385 10.8418C132.959 11.3615 132.742 12.0184 132.742 12.7979C132.742 13.5919 132.973 14.2271 133.428 14.7035C133.89 15.1799 134.518 15.4109 135.327 15.4109C135.998 15.4109 136.575 15.3026 137.066 15.0933L136.886 14.2921C136.467 14.4581 135.998 14.5375 135.485 14.5375C135.023 14.5375 134.648 14.4148 134.352 14.1766C134.035 13.9023 133.869 13.5125 133.854 13H137.312ZM136.034 11.2967C136.185 11.5422 136.265 11.8381 136.258 12.1774H133.854C133.89 11.8309 134.006 11.5349 134.193 11.2823C134.431 10.9719 134.735 10.8131 135.11 10.8131C135.529 10.8131 135.832 10.9719 136.034 11.2967Z" fill="white"/>
</svg>
