<svg width="156" height="47" viewBox="0 0 156 47" fill="none" xmlns="http://www.w3.org/2000/svg">
<path d="M150.182 0.371094H5.8183C2.62787 0.371094 0.0437622 2.95664 0.0437622 6.14563V40.7928C0.0437622 43.9818 2.62787 46.5674 5.8183 46.5674H150.182C153.372 46.5674 155.956 43.9818 155.956 40.7928V6.14563C155.956 2.95664 153.372 0.371094 150.182 0.371094Z" fill="#333333"/>
<path fill-rule="evenodd" clip-rule="evenodd" d="M5.8183 0.371094H150.182C151.712 0.371094 153.184 0.979585 154.267 2.06231C155.35 3.14504 155.956 4.61393 155.956 6.14563V40.7928C155.956 42.3245 155.35 43.7934 154.267 44.8762C153.184 45.9589 151.712 46.5674 150.182 46.5674H5.8183C4.28805 46.5674 2.81554 45.9589 1.73281 44.8762C0.650088 43.7934 0.0437622 42.3245 0.0437622 40.7928V6.14563C0.0437622 4.61393 0.650088 3.14504 1.73281 2.06231C2.81554 0.979585 4.28805 0.371094 5.8183 0.371094ZM153.61 2.71561C152.701 1.80612 151.467 1.29508 150.182 1.29508H5.81835C4.53352 1.29508 3.29921 1.80612 2.38972 2.71561C1.48023 3.6251 0.967744 4.85941 0.967744 6.14569V40.7929C0.967744 42.0792 1.48023 43.3135 2.38972 44.223C3.29921 45.1325 4.53352 45.6435 5.81835 45.6435H150.182C151.467 45.6435 152.701 45.1325 153.61 44.223C154.52 43.3135 155.032 42.0792 155.032 40.7929V6.14569C155.032 4.85941 154.52 3.6251 153.61 2.71561Z" fill="#A6A6A6"/>
<path fill-rule="evenodd" clip-rule="evenodd" d="M55.1762 27.0035V29.0823H60.1711C60.0917 30.0611 59.6803 30.985 59.0162 31.7039C58.511 32.2121 57.9119 32.6105 57.255 32.8733C56.5909 33.136 55.8763 33.2566 55.1689 33.2284C53.6964 33.2284 52.2889 32.6445 51.2495 31.6051C50.2101 30.5649 49.6254 29.1552 49.6254 27.6849C49.6254 26.2145 50.2101 24.8048 51.2495 23.7647C52.2889 22.7253 53.6964 22.1413 55.1689 22.1413C56.5765 22.1182 57.9335 22.6538 58.9441 23.6311L60.4093 22.1644C59.7308 21.4729 58.9152 20.9251 58.0129 20.554C57.1179 20.183 56.1506 19.9961 55.1762 20.0047C54.1512 19.965 53.1262 20.1325 52.1662 20.4977C51.2062 20.863 50.3328 21.4188 49.5893 22.1312C48.853 22.8429 48.2612 23.6976 47.8569 24.6431C47.4527 25.5887 47.2506 26.605 47.2506 27.6329C47.2506 28.66 47.4527 29.6771 47.8569 30.6227C48.2612 31.5682 48.853 32.4229 49.5893 33.1346C50.3328 33.847 51.2062 34.4028 52.1662 34.7681C53.1262 35.1333 54.1512 35.3008 55.1762 35.2611C56.1651 35.3058 57.1539 35.1384 58.0707 34.7695C58.9946 34.4014 59.8175 33.8398 60.5032 33.1245C61.7158 31.7949 62.3582 30.0474 62.3077 28.2508C62.3077 27.8134 62.2716 27.3759 62.1922 26.9457L55.1762 27.0035ZM67.9885 25.4906C67.014 25.4928 66.0685 25.7829 65.26 26.3236C64.4588 26.8642 63.8308 27.6315 63.4627 28.5287C63.0873 29.4259 62.9935 30.4119 63.1884 31.3633C63.3761 32.3146 63.8453 33.1888 64.531 33.8738C65.2167 34.5588 66.0901 35.0251 67.0429 35.2135C67.9957 35.4026 68.9846 35.3044 69.8796 34.9327C70.7747 34.5609 71.5398 33.9315 72.0812 33.1245C72.6225 32.3175 72.9041 31.3691 72.9041 30.3989C72.9185 29.75 72.7958 29.1054 72.5504 28.5042C72.3049 27.9029 71.944 27.3572 71.4821 26.8989C71.0201 26.4412 70.4715 26.0803 69.8724 25.8385C69.2661 25.5967 68.6237 25.4783 67.974 25.4906H67.9885ZM76.0149 26.3286C76.8234 25.7865 77.7689 25.4949 78.7362 25.4906C79.3858 25.4783 80.0354 25.5967 80.6345 25.8385C81.2409 26.0803 81.7822 26.4412 82.2442 26.8989C82.7062 27.3572 83.0671 27.9029 83.3125 28.5042C83.5579 29.1054 83.6806 29.75 83.6734 30.3989C83.6734 31.3691 83.3847 32.3168 82.8433 33.1231C82.3092 33.9301 81.544 34.5595 80.649 34.9312C79.7467 35.3037 78.765 35.4019 77.8122 35.2149C76.8594 35.0272 75.986 34.5617 75.3003 33.8774C74.6146 33.1938 74.1454 32.3211 73.9505 31.3705C73.7556 30.4199 73.8495 29.4339 74.2176 28.5367C74.5857 27.6394 75.2137 26.8714 76.0149 26.3286ZM77.0327 32.981C77.5452 33.282 78.1443 33.4206 78.7362 33.3788C79.1188 33.3701 79.4941 33.2856 79.8406 33.1297C80.1871 32.9745 80.4974 32.7515 80.7501 32.4736C81.0099 32.1957 81.212 31.8694 81.342 31.5129C81.4719 31.1563 81.5296 30.7781 81.508 30.3991C81.508 29.8014 81.3275 29.2175 80.9883 28.7238C80.6562 28.2308 80.1726 27.8504 79.6168 27.6317C79.061 27.4137 78.4547 27.3682 77.87 27.501C77.2854 27.6338 76.7584 27.9392 76.347 28.3766C75.9428 28.8147 75.6757 29.3647 75.5891 29.9559C75.4952 30.5471 75.5819 31.1512 75.8417 31.6904C76.1016 32.2304 76.513 32.68 77.0327 32.981ZM66.2778 32.9868C66.7975 33.2864 67.3894 33.4228 67.9885 33.3788H67.9741C68.3567 33.3701 68.7248 33.2856 69.0713 33.1297C69.4177 32.9745 69.7281 32.7515 69.988 32.4736C70.2478 32.1957 70.4499 31.8694 70.5799 31.5129C70.7098 31.1563 70.7675 30.7781 70.7459 30.3991C70.7459 29.8007 70.5654 29.2168 70.2262 28.723C69.8869 28.2293 69.4105 27.8489 68.8547 27.6317C68.2917 27.4137 67.6854 27.3689 67.1007 27.5032C66.516 27.6367 65.9891 27.9435 65.5849 28.3823C65.1734 28.8212 64.9136 29.3727 64.8198 29.9638C64.7331 30.5557 64.827 31.1606 65.0796 31.6998C65.3395 32.239 65.7581 32.6873 66.2778 32.9868ZM105.891 26.4015C106.642 26.9602 107.205 27.734 107.508 28.6204L107.753 29.1401L101.178 31.8541C101.38 32.3125 101.712 32.6994 102.138 32.9657C102.564 33.2313 103.054 33.3627 103.56 33.3439C104.043 33.3454 104.52 33.2205 104.945 32.9816C105.371 32.7427 105.725 32.3976 105.97 31.9812L107.645 33.1361C107.198 33.8081 106.591 34.3574 105.877 34.7363C105.162 35.1153 104.368 35.3116 103.56 35.3073C102.91 35.3167 102.275 35.1961 101.676 34.9522C101.077 34.7082 100.535 34.3466 100.08 33.8882C99.6257 33.4306 99.2648 32.8856 99.0266 32.2858C98.7884 31.6859 98.6729 31.0442 98.6874 30.3989C98.644 29.7681 98.7379 29.1365 98.9472 28.5424C99.1637 27.9484 99.4958 27.4041 99.9289 26.9443C100.362 26.4838 100.889 26.1178 101.466 25.8674C102.044 25.6176 102.672 25.4891 103.307 25.4906C104.238 25.5252 105.14 25.8428 105.891 26.4015ZM100.809 30.2604C100.788 29.9031 100.831 29.5451 100.954 29.2066C101.069 28.868 101.25 28.5562 101.488 28.2898C101.726 28.0228 102.015 27.8062 102.34 27.6532C102.665 27.4995 103.018 27.4121 103.372 27.3962C103.747 27.3717 104.115 27.4569 104.44 27.6417C104.765 27.8264 105.032 28.1029 105.198 28.4357L100.809 30.2604ZM97.6336 35.0185H95.4754V20.5822H97.6336V35.0185ZM91.9384 26.588H91.859C91.5342 26.2242 91.1372 25.9333 90.6897 25.734C90.2421 25.5348 89.7585 25.4323 89.2749 25.4331C88.0117 25.4944 86.8207 26.0387 85.9473 26.9532C85.0739 27.8685 84.5903 29.0833 84.5903 30.3472C84.5903 31.6111 85.0739 32.8259 85.9473 33.7404C86.8207 34.6557 88.0117 35.2 89.2749 35.2613C89.7585 35.2692 90.2494 35.1704 90.6969 34.9711C91.1372 34.7712 91.5414 34.476 91.859 34.1064H91.9312V34.8109C91.9312 36.6934 90.9206 37.6982 89.3038 37.6982C88.7696 37.6852 88.2427 37.5127 87.8024 37.2023C87.3621 36.8919 87.03 36.4574 86.8352 35.9543L84.9512 36.7396C85.3049 37.6014 85.9112 38.3377 86.6836 38.8545C87.4631 39.3713 88.3726 39.6442 89.3038 39.6384C91.8373 39.6384 93.9234 38.1486 93.9234 34.5222V25.7795H91.9384V26.588ZM89.4653 33.3784L89.4698 33.3788H89.4554L89.4653 33.3784ZM90.5309 33.116C90.1946 33.2734 89.8371 33.3627 89.4653 33.3784C88.7236 33.3117 88.0324 32.9698 87.5281 32.4195C87.0229 31.868 86.7414 31.1469 86.7414 30.3991C86.7414 29.6513 87.0229 28.9302 87.5281 28.3787C88.0334 27.8273 88.7264 27.4851 89.4698 27.4195C89.838 27.4382 90.1989 27.5313 90.5309 27.6923C90.8629 27.8533 91.1661 28.0792 91.4043 28.3564C91.6497 28.6343 91.8374 28.9584 91.9529 29.3092C92.0756 29.66 92.1189 30.0303 92.09 30.3991C92.1189 30.7694 92.0756 31.1426 91.9601 31.4956C91.8446 31.8485 91.6569 32.1741 91.4115 32.452C91.1661 32.7306 90.8629 32.9565 90.5309 33.116ZM117.628 20.5824H112.459V35.0187H114.625V29.5445H117.635C118.248 29.5885 118.869 29.5055 119.454 29.3005C120.031 29.0955 120.565 28.7721 121.02 28.352C121.468 27.9312 121.829 27.4223 122.074 26.8564C122.327 26.2913 122.449 25.6806 122.449 25.0634C122.449 24.4463 122.327 23.8356 122.074 23.2697C121.829 22.7045 121.468 22.1949 121.02 21.7748C120.565 21.3548 120.031 21.0314 119.454 20.8264C118.869 20.6214 118.248 20.5384 117.635 20.5824H117.628ZM114.611 27.5116H117.628L117.671 27.5463C118.328 27.5463 118.956 27.285 119.425 26.8209C119.887 26.356 120.147 25.7259 120.147 25.069C120.147 24.4122 119.887 23.782 119.425 23.3172C118.956 22.853 118.328 22.5917 117.671 22.5917H114.611V27.5116ZM130.938 25.4329C130.151 25.386 129.372 25.5693 128.686 25.9613C128.008 26.3532 127.452 26.9365 127.098 27.6388L129.011 28.4357C129.199 28.087 129.487 27.8012 129.834 27.6128C130.188 27.4244 130.577 27.3407 130.974 27.3732C131.249 27.3414 131.53 27.3638 131.79 27.4403C132.057 27.5168 132.302 27.6453 132.519 27.8185C132.736 27.9918 132.916 28.2061 133.046 28.4487C133.176 28.6912 133.255 28.9575 133.284 29.2326V29.3827C132.591 29.0153 131.819 28.8247 131.032 28.8283C128.968 28.8283 126.874 29.9832 126.874 32.0736C126.896 32.519 127.004 32.9564 127.199 33.3592C127.387 33.762 127.661 34.1214 127.993 34.4181C128.332 34.714 128.722 34.94 129.141 35.0829C129.567 35.2258 130.014 35.2828 130.455 35.2496C131.003 35.2886 131.545 35.1803 132.035 34.9371C132.519 34.6931 132.93 34.3221 133.226 33.8637H133.299V35.0186H135.377V29.4635C135.377 26.9343 133.457 25.4676 130.996 25.4676L130.938 25.4329ZM128.989 32.1196C128.989 32.9858 129.971 33.3438 130.678 33.3438L130.736 33.3785C131.364 33.3633 131.963 33.1208 132.432 32.6964C132.894 32.2719 133.19 31.6938 133.262 31.0687C132.663 30.7345 131.985 30.567 131.299 30.5836C130.216 30.5836 128.989 30.9647 128.989 32.1196ZM142.949 25.7793L140.481 32.0389H140.408L137.846 25.7793H135.536L139.383 34.5335L137.189 39.3957H139.441L145.353 25.7793H142.949ZM125.698 35.0185H123.539V20.5822H125.698V35.0185Z" fill="white"/>
<path fill-rule="evenodd" clip-rule="evenodd" d="M82.4464 15.604C83.3991 15.604 84.3086 15.2272 84.9871 14.5559C85.644 13.8623 86.0121 12.9427 86.0121 11.9863C86.0121 11.0298 85.644 10.1102 84.9871 9.41658C84.6551 9.08166 84.2581 8.81531 83.8178 8.63341C83.3847 8.45223 82.9155 8.3584 82.4464 8.3584C81.97 8.3584 81.5008 8.45223 81.0677 8.63341C80.6346 8.81531 80.2376 9.08166 79.9056 9.41658C79.2487 10.111 78.8806 11.0306 78.8806 11.9863C78.8806 12.9419 79.2487 13.8615 79.9056 14.5559C80.5769 15.2272 81.4936 15.604 82.4464 15.604ZM54.5409 13.5131C54.6925 13.1161 54.7575 12.6931 54.7358 12.2694C54.7358 12.0954 54.7214 11.9215 54.6925 11.7497H51.3289V12.5812H53.8336C53.8191 13.1052 53.617 13.6047 53.2561 13.9902C52.8736 14.3641 52.3827 14.6153 51.8558 14.712C51.3216 14.8087 50.7803 14.7459 50.2822 14.5323C49.7914 14.3186 49.3655 13.9627 49.0768 13.5109C48.7809 13.059 48.6293 12.5307 48.6365 11.9922C48.6293 11.632 48.687 11.2725 48.8169 10.9354C48.9469 10.5991 49.1418 10.2923 49.3944 10.0332C49.647 9.77477 49.9502 9.56905 50.2822 9.42974C50.6143 9.28971 50.968 9.21897 51.3289 9.22041C51.6898 9.20092 52.0435 9.26444 52.3755 9.40736C52.7003 9.54956 52.9963 9.76611 53.2272 10.0404L53.8336 9.4283C53.5376 9.08832 53.1695 8.82341 52.7508 8.65451C52.3033 8.4625 51.8197 8.36434 51.3289 8.36578C50.8597 8.35495 50.3833 8.44229 49.943 8.62058C49.5099 8.79959 49.1129 9.06666 48.7809 9.4052C48.2756 9.91336 47.9291 10.5587 47.792 11.261C47.6476 11.9633 47.7198 12.6916 47.9941 13.3535C48.2684 14.0162 48.7303 14.5828 49.3222 14.9841C49.9141 15.3847 50.6143 15.6013 51.3289 15.607C51.8053 15.6237 52.2744 15.5406 52.7075 15.3638C53.1478 15.187 53.5448 14.9192 53.8697 14.5792C54.1656 14.2731 54.3894 13.9101 54.5409 13.5131ZM56.9085 9.38192H60.0268V8.52729H55.9846V15.4567H60.0268V14.6021H56.9085V12.4078H59.7525V11.5762H56.9085V9.38192ZM63.8164 15.4567H62.9285V9.38192H60.9869V8.52729H65.8014V9.38192H63.8164V15.4567ZM69.1939 8.52729V15.4567H70.0889V8.52729H69.1939ZM74.0371 15.4567H73.1493V9.38192H71.2076V8.52729H75.9644V9.38192H74.0371V15.4567ZM80.5624 13.9785C81.0604 14.4766 81.7389 14.7559 82.4463 14.7559C83.1465 14.7559 83.825 14.4766 84.323 13.9785C84.8211 13.4343 85.0954 12.7262 85.0954 11.9921C85.0954 11.258 84.8211 10.5499 84.323 10.0056C83.825 9.50759 83.1465 9.22824 82.4463 9.22824C81.7389 9.22824 81.0604 9.50759 80.5624 10.0056C80.0643 10.5499 79.7972 11.258 79.7972 11.9921C79.7972 12.7262 80.0643 13.4343 80.5624 13.9785ZM87.261 8.52729V15.4567H88.1633V9.80924L91.6857 15.4567H92.6097V8.52729H91.7146V13.9207L88.3437 8.52729H87.261Z" fill="white"/>
<path fill-rule="evenodd" clip-rule="evenodd" d="M82.4465 8.47409C81.9845 8.47409 81.537 8.56504 81.1111 8.74044C80.6924 8.91584 80.3099 9.17353 79.9851 9.4969C79.3499 10.1704 78.9962 11.0611 78.9962 11.9864C78.9962 12.9118 79.3499 13.8025 79.9851 14.4753C80.6419 15.1249 81.5225 15.4887 82.4465 15.4887C83.3632 15.4887 84.251 15.1242 84.9006 14.4753C85.5431 13.804 85.8967 12.9125 85.8967 11.9864C85.8967 11.0604 85.5431 10.1689 84.9006 9.49763C84.583 9.17353 84.2005 8.91584 83.7746 8.74044C83.3559 8.56504 82.9012 8.47409 82.4465 8.47409ZM81.0245 8.52756C81.4721 8.33989 81.9557 8.24316 82.4465 8.24316C82.9301 8.24316 83.4138 8.33989 83.8613 8.52756C84.316 8.71451 84.7202 8.98952 85.0667 9.33527V9.33744C85.7452 10.052 86.1278 11.0005 86.1278 11.9865C86.1278 12.9725 85.7452 13.921 85.0667 14.6356V14.6377C84.3666 15.3307 83.4282 15.7197 82.4465 15.7197C81.4576 15.7197 80.5193 15.3307 79.8191 14.6377V14.6356C79.1406 13.9195 78.7652 12.9718 78.7652 11.9865C78.7652 11.0012 79.1406 10.0535 79.8191 9.33744V9.33527C80.1656 8.98952 80.5698 8.71451 81.0245 8.52756ZM51.329 8.48139C50.867 8.47129 50.4123 8.55502 49.9936 8.72753C49.5678 8.90077 49.178 9.15846 48.8604 9.48616V9.48688C48.3696 9.97844 48.0375 10.6035 47.9004 11.2835C47.7704 11.9642 47.8354 12.6687 48.1025 13.3096C48.3623 13.9513 48.8099 14.4999 49.3873 14.8882C49.9648 15.2766 50.6361 15.4859 51.329 15.4917H51.3362C51.791 15.5076 52.2457 15.4282 52.6644 15.2571C53.0902 15.086 53.4728 14.8276 53.7904 14.4992C54.0719 14.2047 54.2885 13.8553 54.4328 13.4728C54.5772 13.0902 54.6421 12.6831 54.6205 12.2745L54.736 12.2695H54.6205C54.6205 12.1338 54.6133 11.9988 54.5916 11.8653H51.4445V12.4658H53.9564L53.9492 12.5849C53.9348 13.1364 53.7182 13.6633 53.3429 14.0683V14.0733C52.9387 14.4638 52.4262 14.7251 51.8704 14.8254C51.3218 14.9265 50.7516 14.8608 50.2391 14.6385C49.7194 14.4154 49.2863 14.0452 48.9831 13.5738C48.6727 13.1032 48.5139 12.5539 48.5211 11.9938C48.5139 11.6184 48.5717 11.2445 48.7088 10.8944C48.846 10.5429 49.0481 10.2231 49.3151 9.95318C49.575 9.68322 49.8854 9.46884 50.2318 9.32303C50.5783 9.17794 50.9537 9.1036 51.329 9.10504C51.7043 9.08483 52.0725 9.15196 52.4189 9.30138C52.7293 9.43419 53.0036 9.62836 53.2274 9.87233L53.6749 9.42408C53.4078 9.13608 53.0758 8.91015 52.7077 8.76146V8.76073C52.2746 8.57523 51.8054 8.47995 51.329 8.48139ZM54.8515 12.2667C54.8731 12.7056 54.801 13.143 54.6494 13.5537C54.4978 13.9659 54.2596 14.3419 53.9564 14.6595C53.6172 15.0111 53.2057 15.2882 52.751 15.4709C52.3035 15.6542 51.8126 15.7401 51.329 15.7228C50.5928 15.717 49.871 15.4932 49.2574 15.0796C48.6439 14.666 48.1675 14.0814 47.886 13.3978C47.6045 12.715 47.5323 11.9636 47.6766 11.2388C47.821 10.5141 48.1747 9.84863 48.6944 9.32459C49.0409 8.97451 49.4523 8.69877 49.8998 8.51399C50.3546 8.3292 50.8454 8.2397 51.329 8.25053C51.8343 8.24908 52.3324 8.35014 52.7943 8.54791C53.2274 8.72332 53.6172 8.99905 53.9203 9.35274L53.9925 9.43431L53.2202 10.211L53.1336 10.115C52.917 9.8544 52.6427 9.64869 52.3251 9.51298C52.0148 9.378 51.6755 9.31737 51.3362 9.33614H51.329C50.9826 9.3347 50.6433 9.40255 50.3257 9.53608C50.0081 9.66962 49.7194 9.86667 49.4812 10.1143C49.2358 10.3618 49.0481 10.6556 48.9254 10.9776C48.8027 11.2995 48.7449 11.6438 48.7521 11.9881V11.9939C48.7449 12.5092 48.8965 13.016 49.1708 13.4483C49.4523 13.8814 49.8565 14.2214 50.3257 14.4264C50.8021 14.6307 51.3218 14.6913 51.8343 14.5989C52.3396 14.5065 52.8088 14.2669 53.1769 13.9096C53.4873 13.5746 53.6749 13.1481 53.711 12.6969H51.2135V11.6344H54.7865L54.8082 11.7297C54.8371 11.9065 54.8515 12.087 54.8515 12.2667ZM55.8693 8.41206H60.1424V9.49767H57.0242V11.461H59.8681V12.5235H57.0242V14.4869H60.1424V15.5725H55.8693V8.41206ZM56.1002 8.64298V15.3414H59.9114V14.7178H56.7931V12.2925H59.6371V11.6919H56.7931V9.26663H59.9114V8.64298H56.1002ZM60.8715 8.41206H65.917V9.49767H63.932V15.5725H62.8132V9.49767H60.8715V8.41206ZM61.1024 8.64298V9.26663H63.0441V15.3414H63.701V9.26663H65.686V8.64298H61.1024ZM69.0785 8.41206H70.2046V15.5725H69.0785V8.41206ZM69.3096 8.64298V15.3414H69.9736V8.64298H69.3096ZM71.0923 8.41206H76.08V9.49767H74.1528V15.5725H73.034V9.49767H71.0923V8.41206ZM71.3235 8.64298V9.26663H73.2652V15.3414H73.922V9.26663H75.8493V8.64298H71.3235ZM87.1457 8.41206H88.4088L91.5993 13.5182V8.41206H92.7253V15.5725H91.6209L88.2789 10.213V15.5725H87.1457V8.41206ZM87.3766 8.64298V15.3414H88.0479V9.40594L91.7436 15.3414H92.4943V8.64298H91.8302V14.3237L88.2789 8.64298H87.3766ZM80.4831 9.92433C81.0028 9.40462 81.7102 9.11301 82.4465 9.11301C83.1827 9.11301 83.8829 9.40462 84.4098 9.92433V9.92794C84.9223 10.4931 85.211 11.2294 85.211 11.9923C85.211 12.7553 84.9223 13.4908 84.4098 14.056V14.0603C83.8829 14.5801 83.1827 14.8717 82.4465 14.8717C81.7102 14.8717 81.0028 14.5801 80.4831 14.0603L80.5625 13.9788L80.4759 14.056C79.9634 13.4908 79.6819 12.7553 79.6819 11.9923C79.6819 11.2294 79.9634 10.4931 80.4759 9.92794L80.4831 9.92433ZM80.6421 13.8986C81.1258 14.3743 81.7682 14.6406 82.4467 14.6406C83.118 14.6406 83.7676 14.3743 84.244 13.8986C84.7132 13.3767 84.9803 12.6968 84.9803 11.9923C84.9803 11.2878 84.7132 10.6078 84.244 10.0852C83.7676 9.61029 83.118 9.34393 82.4467 9.34393C81.7682 9.34393 81.1258 9.61029 80.6421 10.0852C80.173 10.6078 79.9131 11.2878 79.9131 11.9923C79.9131 12.6968 80.173 13.3767 80.6421 13.8986Z" fill="white"/>
<path d="M12.0982 9.07889C11.7229 9.53075 11.5352 10.1089 11.5713 10.6958V36.2423C11.5352 36.8291 11.7229 37.4073 12.0982 37.8592L12.1848 37.94L26.4912 23.6423V23.3073L12.1848 8.99805L12.0982 9.07889Z" fill="url(#paint0_linear_3503_1160)"/>
<path d="M31.2261 28.4124L26.491 23.6426V23.3077L31.2261 18.5264L31.3272 18.5841L37.0007 21.8063C38.6175 22.7187 38.6175 24.2201 37.0007 25.144L31.3561 28.3546L31.2261 28.4124Z" fill="url(#paint1_linear_3503_1160)"/>
<path d="M31.3634 28.3425L26.4911 23.4688L12.0981 37.8589C12.4301 38.1483 12.8488 38.3144 13.2891 38.3266C13.7294 38.3396 14.1553 38.1981 14.5018 37.9282L31.3778 28.3425" fill="url(#paint2_linear_3503_1160)"/>
<path d="M31.3633 18.5953L14.4944 9.00962C14.1479 8.73966 13.7148 8.59818 13.2745 8.61117C12.8414 8.62344 12.4156 8.78946 12.0908 9.07891L26.491 23.4691L31.3633 18.5953Z" fill="url(#paint3_linear_3503_1160)"/>
<path opacity="0.2" d="M31.2263 28.2393L14.4945 37.7672C14.1553 38.0163 13.7511 38.1513 13.3396 38.1513C12.921 38.1513 12.5168 38.0163 12.1847 37.7672L12.0981 37.8481L12.1847 37.9289C12.5168 38.1801 12.921 38.3158 13.3396 38.3158C13.7511 38.3158 14.1553 38.1801 14.4945 37.9289L31.3634 28.3432L31.2263 28.2393Z" fill="#333333"/>
<path opacity="0.12" fill-rule="evenodd" clip-rule="evenodd" d="M31.2262 28.2385L37.0007 24.9701C37.2967 24.825 37.5493 24.6136 37.7514 24.3537C37.9535 24.0931 38.0907 23.7907 38.1556 23.4688C38.1268 23.8232 38.004 24.1631 37.8019 24.4555C37.5998 24.7471 37.3255 24.981 37.0007 25.1318L31.3272 28.3425L31.2262 28.2385ZM11.5685 36.3095C11.5874 36.816 11.7719 37.3043 12.0982 37.6971L12.1848 37.7895L12.0982 37.8704C11.7348 37.4329 11.5473 36.877 11.5685 36.3095ZM11.5685 36.3095C11.5692 36.2909 11.5701 36.2722 11.5713 36.2535V36.0802C11.5666 36.1569 11.5657 36.2334 11.5685 36.3095Z" fill="#333333"/>
<path opacity="0.25" d="M14.4945 9.17041L37.0008 21.9668C37.2967 22.1126 37.5494 22.3234 37.7515 22.5832C37.9536 22.8438 38.0907 23.1462 38.1557 23.4682C38.1268 23.1145 38.0041 22.7738 37.802 22.4822C37.5999 22.1898 37.3256 21.9567 37.0008 21.8051L14.4945 9.00872C12.8777 8.09634 11.5567 8.85858 11.5567 10.7064V10.8797C11.5928 9.02027 12.8849 8.25803 14.4945 9.17041Z" fill="white"/>
<defs>
<linearGradient id="paint0_linear_3503_1160" x1="20.2242" y1="-8.36193" x2="-2.6894" y2="-2.26943" gradientUnits="userSpaceOnUse">
<stop stop-color="#00A0FF"/>
<stop offset="0.01" stop-color="#00A1FF"/>
<stop offset="0.26" stop-color="#00BEFF"/>
<stop offset="0.51" stop-color="#00D2FF"/>
<stop offset="0.76" stop-color="#00DFFF"/>
<stop offset="1" stop-color="#00E3FF"/>
</linearGradient>
<linearGradient id="paint1_linear_3503_1160" x1="39.1156" y1="11.6871" x2="11.1741" y2="11.6871" gradientUnits="userSpaceOnUse">
<stop stop-color="#FFE000"/>
<stop offset="0.41" stop-color="#FFBD00"/>
<stop offset="0.78" stop-color="#FFA500"/>
<stop offset="1" stop-color="#FF9C00"/>
</linearGradient>
<linearGradient id="paint2_linear_3503_1160" x1="11.6757" y1="15.9949" x2="-6.72469" y2="46.9569" gradientUnits="userSpaceOnUse">
<stop stop-color="#FF3A44"/>
<stop offset="1" stop-color="#C31162"/>
</linearGradient>
<linearGradient id="paint3_linear_3503_1160" x1="0.864745" y1="5.10318" x2="9.08443" y2="18.9281" gradientUnits="userSpaceOnUse">
<stop stop-color="#32A071"/>
<stop offset="0.07" stop-color="#2DA771"/>
<stop offset="0.48" stop-color="#15CF74"/>
<stop offset="0.8" stop-color="#06E775"/>
<stop offset="1" stop-color="#00F076"/>
</linearGradient>
</defs>
</svg>
